<svg xmlns="http://www.w3.org/2000/svg" viewBox="0 0 24 24" width="512" height="512">
  <defs>
    <linearGradient id="bg" x1="0" y1="0" x2="0" y2="1">
      <stop offset="0" stop-color="#0E3B25"/>
      <stop offset="1" stop-color="#0A2A1B"/>
    </linearGradient>
  </defs>
  <rect width="24" height="24" fill="url(#bg)"/>
  <g fill="none" stroke="#FFFFFF" stroke-width="1.4" stroke-linecap="round" stroke-linejoin="round">
    <path d="M12 22v-8"/>
    <path d="M12 13.5c-2.1 0-3.6-1.3-4-3.6"/>
    <path d="M12 16c-2.5 0-4.2-1.4-4.6-4"/>
    <path d="M12 18.5c-2.9 0-4.9-1.5-5.3-4.4"/>
    <path d="M12 13.5c2.1 0 3.6-1.3 4-3.6"/>
    <path d="M12 16c2.5 0 4.2-1.4 4.6-4"/>
    <path d="M12 18.5c2.9 0 4.9-1.5 5.3-4.4"/>
    <path d="M12 12.8c-.9-1.2-1.4-2.6-1.4-4.3 0-.8.2-1.6.6-2.3"/>
    <path d="M12 12.8c.9-1.2 1.4-2.6 1.4-4.3 0-.8-.2-1.6-.6-2.3"/>
  </g>
</svg>
